<svg width="120" height="40" viewBox="0 0 120 40" fill="none" xmlns="http://www.w3.org/2000/svg">
  <path d="M20.4 32H6V8H20.4V12.8H10.8V17.6H19.2V22.4H10.8V27.2H20.4V32Z" fill="#4F46E5"/>
  <path d="M38.3262 32H33.5262V8H38.3262V18.4L44.7262 8H50.3262L43.1262 18.8L50.3262 32H44.7262L39.5262 21.2L38.3262 23.2V32Z" fill="#4F46E5"/>
  <path d="M68.5125 32H63.7125V12.8H57.3125V8H74.9125V12.8H68.5125V32Z" fill="#4F46E5"/>
  <path d="M92.3987 32H76.7988V8H81.5988V27.2H92.3987V32Z" fill="#4F46E5"/>
  <path d="M109.385 32H94.9849V8H109.385V12.8H99.7849V17.6H108.185V22.4H99.7849V27.2H109.385V32Z" fill="#4F46E5"/>
  <rect x="1" y="1" width="118" height="38" rx="6" stroke="#4F46E5" stroke-width="2"/>
</svg> 